<?xml version="1.0" encoding="utf-8"?>
<!-- Generator: Adobe Illustrator 25.2.0, SVG Export Plug-In . SVG Version: 6.00 Build 0)  -->
<svg version="1.1" id="Layer_1" xmlns="http://www.w3.org/2000/svg" xmlns:xlink="http://www.w3.org/1999/xlink" x="0px" y="0px"
	 viewBox="0 0 782.4 665.6" style="enable-background:new 0 0 782.4 665.6;" xml:space="preserve">
<style type="text/css">
	.st0{fill:#F1F1F1;}
	.st1{fill:#FFB7B7;}
	.st2{fill:#FFB9B9;}
	.st3{fill:#0055AA;}
	.st4{fill:#CBCBCB;}
	.st5{fill:#FFFFFF;}
	.st6{fill:#F9A826;}
	.st7{fill:#3F3D56;}
</style>
<path class="st0" d="M687.9,640.8c8.6,16.6,27.3,24.1,27.3,24.1s4.8-19.5-3.7-36.2s-27.3-24.1-27.3-24.1S679.3,624.2,687.9,640.8z"
	/>
<path class="st0" d="M694.1,635.5c15.8,9.9,21.6,29.2,21.6,29.2s-19.9,3.1-35.7-6.8s-21.6-29.2-21.6-29.2S678.2,625.6,694.1,635.5z"
	/>
<polygon class="st1" points="471.6,653.4 460.5,653.4 455.2,610.6 471.6,610.6 "/>
<path d="M474.4,664.2l-35.8,0v-0.5c0-7.7,6.2-13.9,13.9-13.9h0l21.9,0L474.4,664.2z"/>
<polygon class="st1" points="540.4,653.4 529.3,653.4 524,610.6 540.4,610.6 "/>
<path d="M543.2,664.2l-35.8,0v-0.5c0-7.7,6.2-13.9,13.9-13.9h0l21.9,0L543.2,664.2z"/>
<path class="st1" d="M508.2,412.1l-21.8-44l5.6-36.5l-26.3-7.2l-2.7,48.9l34.1,46.3c-0.7,5,2.7,9.5,7.7,10.2c5,0.7,9.5-2.7,10.2-7.7
	C515.6,417.6,512.7,413.3,508.2,412.1L508.2,412.1z"/>
<path class="st1" d="M555.4,412.1l21.8-44l-5.6-36.5l26.3-7.2l2.7,48.9l-34.1,46.3c0.7,5-2.7,9.5-7.7,10.2c-5,0.7-9.5-2.7-10.2-7.7
	C548,417.6,550.9,413.3,555.4,412.1L555.4,412.1z"/>
<circle class="st2" cx="540.8" cy="238" r="23.9"/>
<path d="M517.1,237.9c0,0-2.6-3.9-1.6-8.1c0.6-2.4,0.8-4.8,0.7-7.3c1.1-3.6,2.5-7.2,4.2-10.6c2.1-3.8,1.1-5.4,7.7-6.6
	s3.9-9.8,21.2-0.5c1.2,1.7,3.3,2.5,5.3,2c3.6-0.7,4.9,4.3,4.9,4.3s2.4-1.4,3.3,0.6s7.3-1.2,7.3,12.3s-7.3,25.5-7.3,25.5
	s-5.1,16.1-17,13.8s-13.6-0.9-21.7-16.3C522.4,251.8,519.9,233.6,517.1,237.9z"/>
<path d="M488.3,392.4l-2.8,10.9c0,0-13,6.3-18.3,62.9l-7,84.9l-10.7,89l22.3,1.7l15.5-56.4l33.4-118.5l6.3,89.7l-7.1,81.3l23.5,0.9
	l16.3-90.6c0,0,25-132.7,8.9-136.5l-1.6-13.8L488.3,392.4z"/>
<path class="st3" d="M483.2,290.3l38.4-21.2l32.6,1.7l39,23.1l-16.2,101.4c0,0,9.3,10.4-18.8,7.4s-73.6-5.5-73.6-5.5
	s-3.7-7.3,4.2-8.3s1.3-0.8,1.3-0.8s-4.7-15.2,0-18.1l2.3-31.1L483.2,290.3z"/>
<polygon class="st3" points="493.8,291.9 483.2,290.3 460.7,330.4 497.2,346.4 "/>
<polygon class="st3" points="580.7,299.1 593.2,293.9 605.6,350.3 571.9,356.7 "/>
<path class="st4" d="M292.4,665.6h489c0.6,0,1-0.4,1-1s-0.4-1-1-1h-489c-0.6,0-1,0.4-1,1S291.9,665.6,292.4,665.6z"/>
<rect x="113" y="397.6" class="st5" width="127" height="64"/>
<rect x="128" y="414" class="st6" width="97" height="3.3"/>
<rect x="128" y="428" class="st6" width="97" height="3.3"/>
<rect x="128" y="441.9" class="st6" width="97" height="3.3"/>
<path class="st7" d="M241,462.6H112v-66h129V462.6z M114,460.6h125v-62H114V460.6z"/>
<path class="st6" d="M148.7,318.1c-26.9,0-53.2-7.5-76.1-21.6l-0.6-0.4l0.4-0.6l76-122.9h145.2v0.7
	C293.5,253.2,228.6,318.1,148.7,318.1z"/>
<path class="st0" d="M55.6,265.9l-0.5-0.3C1.9,232.7-15.7,163.5,15.3,109.1l0.3-0.5L117,166.6L55.6,265.9z"/>
<path class="st6" d="M293.5,153.3H147.9L179.3,11l0.7,0.1c66.3,14.7,113.6,73.5,113.6,141.4V153.3z"/>
<path class="st0" d="M124.7,130.9L26,74.5l0.3-0.5c24.6-42.9,74.1-64.9,122.4-54.2l0.5,0.1L124.7,130.9z"/>
<rect x="367" y="1" class="st5" width="127" height="64"/>
<rect x="382" y="17.4" class="st6" width="97" height="3.3"/>
<rect x="382" y="31.4" class="st6" width="97" height="3.3"/>
<rect x="382" y="45.3" class="st6" width="97" height="3.3"/>
<path class="st7" d="M495,66H366V0h129V66z M368,64h125V2H368V64z"/>
<rect x="175.8" y="232" class="st7" width="2" height="164.6"/>
<rect x="209.5" y="66.9" transform="matrix(0.9111 -0.4121 0.4121 0.9111 -2.0632 126.3126)" class="st7" width="164.8" height="2"/>
</svg>
